<!-- Generated by IcoMoon.io -->
<svg version="1.1" xmlns="http://www.w3.org/2000/svg" width="32" height="32" viewBox="0 0 32 32">
<title>dollar</title>
<path d="M24.321 21.161c0 3.642-2.607 6.518-6.393 7.143v3.125c0 0.321-0.25 0.571-0.571 0.571h-2.41c-0.315-0.002-0.569-0.257-0.571-0.571v-3.125c-4.178-0.59-6.464-3.089-6.553-3.197-0.090-0.103-0.146-0.24-0.146-0.389 0-0.129 0.041-0.248 0.111-0.346l-0.001 0.002 1.839-2.41c0.089-0.125 0.25-0.197 0.41-0.214s0.321 0.035 0.429 0.161c0.035 0.018 2.536 2.41 5.696 2.41 1.75 0 3.642-0.928 3.642-2.946 0-1.714-2.107-2.553-4.518-3.518-3.214-1.267-7.214-2.875-7.214-7.358 0-3.286 2.571-6 6.304-6.714v-3.214c0-0.321 0.267-0.571 0.571-0.571h2.41c0.321 0 0.571 0.25 0.571 0.571v3.143c3.625 0.41 5.553 2.375 5.625 2.447 0.1 0.103 0.162 0.244 0.162 0.399 0 0.103-0.027 0.199-0.074 0.282l0.001-0.003-1.447 2.607c-0.080 0.155-0.23 0.265-0.408 0.285l-0.002 0c-0.032 0.006-0.069 0.010-0.106 0.010-0.143 0-0.275-0.051-0.377-0.135l0.001 0.001c-0.018-0.018-2.178-1.928-4.857-1.928-2.267 0-3.839 1.125-3.839 2.75 0 1.893 2.178 2.733 4.714 3.714 3.286 1.267 7 2.714 7 7.018z"></path>
</svg>
