<!-- Generated by IcoMoon.io -->
<svg version="1.1" xmlns="http://www.w3.org/2000/svg" width="32" height="32" viewBox="0 0 32 32">
<title>pictures</title>
<path d="M28 8v16c0 1.105-0.895 2-2 2v0h-21c0 1.105 0.895 2 2 2v0h21c1.105 0 2-0.895 2-2v0-16c0-1.105-0.895-2-2-2v0zM27 23v-16c0-1.105-0.895-2-2-2v0h-21c-1.105 0-2 0.895-2 2v0 16c0 1.105 0.895 2 2 2v0h21c1.105 0 2-0.895 2-2v0zM4 7h21v16h-21v-16zM15.627 17.311l-2.988-3.181-2.989 5.104-2.242-2.343-2.429 5.129h19.055l-4.297-11.245-4.11 6.536zM8 14c1.105-0 2-0.896 2-2.001s-0.896-2.001-2.001-2.001c-0 0-0 0-0.001 0h0c-1.105 0-2 0.896-2 2.001s0.896 2.001 2 2.001c0 0 0 0 0.001 0h-0z"></path>
</svg>
