<svg aria-hidden="true" style="position: absolute; width: 0; height: 0; overflow: hidden;" version="1.1" xmlns="http://www.w3.org/2000/svg" xmlns:xlink="http://www.w3.org/1999/xlink">
<defs>
<symbol id="icon-account_circle" viewBox="0 0 32 32">
<path d="M16 25.625q2.125 0 4.469-1.251t3.531-3.063q-0.063-1.751-2.812-2.937t-5.188-1.188-5.188 1.156-2.812 2.969q1.188 1.812 3.531 3.063t4.469 1.251zM16 6.688q-1.625 0-2.812 1.188t-1.188 2.812 1.188 2.812 2.812 1.188 2.812-1.188 1.188-2.812-1.188-2.812-2.812-1.188zM16 2.688q5.5 0 9.407 3.907t3.907 9.407-3.907 9.407-9.407 3.907-9.407-3.907-3.907-9.407 3.907-9.407 9.407-3.907z"></path>
</symbol>
<symbol id="icon-user-group" viewBox="0 0 32 32">
<path d="M11.2 12.8c-3.535 0-6.4-2.865-6.4-6.4s2.865-6.4 6.4-6.4v0c3.535 0 6.4 2.865 6.4 6.4s-2.865 6.4-6.4 6.4v0zM11.2 14.4c3.44 0 6.72 0.64 9.76 1.744l-1.76 9.456h-2l-1.2 6.4h-9.6l-1.2-6.4h-2l-1.76-9.456c2.901-1.094 6.254-1.733 9.755-1.744h0.005zM24.496 14.672c2.112 0.288 4.144 0.768 6.080 1.472l-1.776 9.456h-2l-1.2 6.4h-6.336l0.592-3.2h2l2.64-14.128zM20.8 0h0.054c3.533 0.003 6.396 2.867 6.396 6.4 0 3.535-2.865 6.4-6.4 6.4-0.798 0-1.562-0.146-2.267-0.413l0.044 0.015 0.045 0.014c1.331-1.627 2.138-3.726 2.138-6.016s-0.806-4.389-2.15-6.034l0.013 0.018c0.688-0.224 1.376-0.384 2.128-0.384z"></path>
</symbol>
<symbol id="icon-dashboard" viewBox="0 0 32 32">
<path d="M17.312 4h10.688v8h-10.688v-8zM17.312 28v-13.312h10.688v13.312h-10.688zM4 28v-8h10.688v8h-10.688zM4 17.312v-13.312h10.688v13.312h-10.688z"></path>
</symbol>
<symbol id="icon-dollar" viewBox="0 0 32 32">
<path d="M24.321 21.161c0 3.642-2.607 6.518-6.393 7.143v3.125c0 0.321-0.25 0.571-0.571 0.571h-2.41c-0.315-0.002-0.569-0.257-0.571-0.571v-3.125c-4.178-0.59-6.464-3.089-6.553-3.197-0.090-0.103-0.146-0.24-0.146-0.389 0-0.129 0.041-0.248 0.111-0.346l-0.001 0.002 1.839-2.41c0.089-0.125 0.25-0.197 0.41-0.214s0.321 0.035 0.429 0.161c0.035 0.018 2.536 2.41 5.696 2.41 1.75 0 3.642-0.928 3.642-2.946 0-1.714-2.107-2.553-4.518-3.518-3.214-1.267-7.214-2.875-7.214-7.358 0-3.286 2.571-6 6.304-6.714v-3.214c0-0.321 0.267-0.571 0.571-0.571h2.41c0.321 0 0.571 0.25 0.571 0.571v3.143c3.625 0.41 5.553 2.375 5.625 2.447 0.1 0.103 0.162 0.244 0.162 0.399 0 0.103-0.027 0.199-0.074 0.282l0.001-0.003-1.447 2.607c-0.080 0.155-0.23 0.265-0.408 0.285l-0.002 0c-0.032 0.006-0.069 0.010-0.106 0.010-0.143 0-0.275-0.051-0.377-0.135l0.001 0.001c-0.018-0.018-2.178-1.928-4.857-1.928-2.267 0-3.839 1.125-3.839 2.75 0 1.893 2.178 2.733 4.714 3.714 3.286 1.267 7 2.714 7 7.018z"></path>
</symbol>
<symbol id="icon-pictures" viewBox="0 0 32 32">
<path d="M28 8v16c0 1.105-0.895 2-2 2v0h-21c0 1.105 0.895 2 2 2v0h21c1.105 0 2-0.895 2-2v0-16c0-1.105-0.895-2-2-2v0zM27 23v-16c0-1.105-0.895-2-2-2v0h-21c-1.105 0-2 0.895-2 2v0 16c0 1.105 0.895 2 2 2v0h21c1.105 0 2-0.895 2-2v0zM4 7h21v16h-21v-16zM15.627 17.311l-2.988-3.181-2.989 5.104-2.242-2.343-2.429 5.129h19.055l-4.297-11.245-4.11 6.536zM8 14c1.105-0 2-0.896 2-2.001s-0.896-2.001-2.001-2.001c-0 0-0 0-0.001 0h0c-1.105 0-2 0.896-2 2.001s0.896 2.001 2 2.001c0 0 0 0 0.001 0h-0z"></path>
</symbol>
<symbol id="icon-rate_review" viewBox="0 0 32 32">
<path d="M24 18.688v-2.688h-7.312l-2.688 2.688h10zM8 18.688h3.312l9.188-9.188q0.5-0.5 0-0.937l-2.375-2.375q-0.5-0.437-0.937 0l-9.188 9.188v3.312zM26.688 2.688q1.063 0 1.844 0.781t0.781 1.844v16q0 1.063-0.781 1.875t-1.844 0.812h-18.688l-5.312 5.312v-24q0-1.063 0.781-1.844t1.844-0.781h21.375z"></path>
</symbol>
<symbol id="icon-reload" viewBox="0 0 32 32">
<path d="M24 18c0 4.41-3.586 8-8 8s-8-3.59-8-8 3.586-8 8-8l2.359 0.027-1.164 1.164 2.828 2.828 6.012-6.019-6.012-6-2.828 2.828 1.18 1.172h-2.375c-6.625 0-12 5.371-12 12s5.375 12 12 12 12-5.371 12-12h-4z"></path>
</symbol>
</defs>
</svg>
