<!-- Generated by IcoMoon.io -->
<svg version="1.1" xmlns="http://www.w3.org/2000/svg" width="32" height="32" viewBox="0 0 32 32">
<title>user-group</title>
<path d="M11.2 12.8c-3.535 0-6.4-2.865-6.4-6.4s2.865-6.4 6.4-6.4v0c3.535 0 6.4 2.865 6.4 6.4s-2.865 6.4-6.4 6.4v0zM11.2 14.4c3.44 0 6.72 0.64 9.76 1.744l-1.76 9.456h-2l-1.2 6.4h-9.6l-1.2-6.4h-2l-1.76-9.456c2.901-1.094 6.254-1.733 9.755-1.744h0.005zM24.496 14.672c2.112 0.288 4.144 0.768 6.080 1.472l-1.776 9.456h-2l-1.2 6.4h-6.336l0.592-3.2h2l2.64-14.128zM20.8 0h0.054c3.533 0.003 6.396 2.867 6.396 6.4 0 3.535-2.865 6.4-6.4 6.4-0.798 0-1.562-0.146-2.267-0.413l0.044 0.015 0.045 0.014c1.331-1.627 2.138-3.726 2.138-6.016s-0.806-4.389-2.15-6.034l0.013 0.018c0.688-0.224 1.376-0.384 2.128-0.384z"></path>
</svg>
